<?xml version="1.0" standalone="no"?>
<!DOCTYPE svg PUBLIC "-//W3C//DTD SVG 20010904//EN"
 "http://www.w3.org/TR/2001/REC-SVG-20010904/DTD/svg10.dtd">
<svg version="1.0" xmlns="http://www.w3.org/2000/svg"
 width="1024.000000pt" height="1536.000000pt" viewBox="0 0 1024.000000 1536.000000"
 preserveAspectRatio="xMidYMid meet">

<g transform="translate(0.000000,1536.000000) scale(0.100000,-0.100000)"
fill="#000000" stroke="none">
<path d="M0 7680 l0 -7680 5120 0 5120 0 0 7680 0 7680 -5120 0 -5120 0 0
-7680z m4435 488 c14 -72 -5 -98 -218 -315 -110 -111 -205 -203 -211 -203 -6
0 27 37 72 83 68 69 80 85 70 97 -11 11 -9 11 6 0 18 -14 19 -13 14 8 -4 12
-2 20 3 16 5 -3 9 0 9 5 0 6 5 11 11 11 5 0 7 -4 4 -10 -3 -5 -4 -10 -1 -10 3
0 10 10 17 21 6 12 7 19 1 15 -5 -3 -15 1 -22 9 -7 9 -8 15 -2 15 14 0 21 37
9 49 -7 7 -6 15 4 27 9 12 10 15 1 10 -9 -5 -11 2 -7 28 2 20 0 36 -5 36 -6 0
-10 5 -10 11 0 5 5 7 11 3 8 -5 9 -2 1 12 -6 10 -7 27 -2 40 5 12 6 24 4 27
-3 3 -1 15 5 26 7 11 13 38 15 58 2 21 7 50 11 66 6 22 10 25 21 16 9 -8 14
-8 14 -1 0 6 -9 14 -20 17 -24 8 -27 25 -4 25 8 0 12 5 9 10 -4 6 -11 7 -17 4
-6 -4 -8 -3 -5 3 4 6 -8 24 -26 40 -17 17 -52 52 -76 79 -24 27 -67 74 -95
104 -28 30 52 -46 176 -170 192 -191 227 -231 233 -262z m-445 -542 c0 -3 -4
-8 -10 -11 -5 -3 -10 -1 -10 4 0 6 5 11 10 11 6 0 10 -2 10 -4z m5140 -701 c0
-13 -446 -15 -3954 -15 -2199 0 -3957 4 -3960 9 -3 4 -3 11 1 15 3 3 1785 6
3960 6 3507 0 3953 -2 3953 -15z m-6190 -610 l0 -245 -35 0 c-31 0 -35 3 -35
27 l0 27 -31 -30 c-26 -25 -38 -29 -84 -29 -95 0 -150 64 -150 175 0 76 22
122 76 158 43 30 117 27 152 -7 13 -11 25 -21 28 -21 2 0 3 43 1 95 l-3 95 40
0 41 0 0 -245z m4604 229 c9 -8 16 -22 16 -29 0 -20 -28 -45 -50 -45 -17 0
-50 34 -50 52 0 14 32 38 50 38 10 0 26 -7 34 -16z m-5471 -47 c34 -26 67 -73
67 -96 0 -8 -60 -35 -65 -29 -2 2 -10 17 -18 34 -21 40 -78 68 -122 60 -74
-14 -115 -75 -115 -171 0 -107 63 -174 152 -162 43 6 72 27 94 69 15 29 46 36
74 18 13 -8 11 -16 -11 -57 -20 -37 -39 -55 -79 -75 -208 -109 -403 133 -276
344 44 74 97 101 192 96 59 -3 77 -8 107 -31z m1961 0 c20 -16 45 -45 56 -67
l19 -38 -23 -6 c-13 -3 -30 -8 -38 -11 -8 -3 -21 8 -32 29 -19 36 -67 66 -106
66 -54 0 -112 -53 -130 -119 -33 -123 40 -230 147 -218 47 5 77 26 99 69 15
29 45 36 73 19 33 -21 -39 -115 -111 -145 -84 -36 -200 -2 -251 72 -52 75 -60
189 -19 269 43 82 104 115 208 111 60 -3 77 -8 108 -31z m2196 -197 l0 -230
-40 0 -40 0 0 230 0 230 40 0 40 0 0 -230z m-960 160 l0 -50 50 0 c47 0 50 -2
50 -25 0 -23 -3 -25 -50 -25 l-51 0 3 -112 3 -113 42 -3 c32 -2 44 -8 48 -24
9 -27 -5 -39 -51 -44 -90 -11 -124 43 -124 194 l0 102 -25 0 c-21 0 -25 5 -25
29 0 25 3 28 25 23 24 -4 25 -2 25 47 l0 51 40 0 40 0 0 -50z m-2812 -59 c100
-51 118 -207 33 -292 -79 -79 -216 -56 -261 44 -46 101 -4 225 90 260 33 12
103 6 138 -12z m792 0 c45 -23 80 -84 80 -138 l0 -43 -125 0 c-81 0 -125 -4
-125 -10 0 -29 32 -69 65 -80 39 -13 70 -6 101 22 15 14 29 17 48 12 33 -8 33
-19 -2 -54 -79 -78 -218 -56 -262 43 -33 71 -21 166 28 221 41 46 132 59 192
27z m1130 -16 c0 -33 -2 -35 -35 -35 -25 0 -44 -8 -60 -25 -24 -23 -25 -30
-25 -140 l0 -115 -40 0 -40 0 0 170 0 170 35 0 c31 0 35 -3 36 -27 0 -16 3
-22 6 -15 8 21 65 52 96 52 24 0 27 -3 27 -35z m269 15 c45 -23 81 -86 81
-143 l0 -37 -125 0 c-81 0 -125 -4 -125 -10 0 -29 32 -69 65 -80 39 -13 70 -6
101 22 15 14 29 17 48 12 35 -8 33 -20 -9 -60 -56 -53 -143 -58 -207 -12 -79
56 -92 203 -25 277 48 52 130 65 196 31z m367 4 c55 -26 64 -55 64 -204 l0
-130 -30 0 c-23 0 -30 4 -30 20 0 25 -5 25 -29 1 -28 -28 -84 -36 -129 -19
-80 30 -93 128 -23 175 27 18 48 23 102 23 65 0 69 1 69 23 0 12 -7 33 -16 45
-21 30 -88 31 -106 2 -13 -21 -43 -26 -67 -11 -12 8 -12 13 3 36 34 52 126 70
192 39z m652 -11 c38 -29 61 -71 64 -123 l3 -45 -128 -3 c-127 -3 -128 -3
-122 -25 21 -68 108 -96 158 -49 18 17 31 21 51 16 35 -8 33 -26 -9 -62 -81
-72 -207 -46 -254 50 -33 68 -22 167 24 218 48 53 157 65 213 23z m886 17 c53
-20 66 -61 66 -207 l0 -133 -35 0 -35 0 0 109 c0 60 -4 121 -10 135 -19 51
-79 58 -120 14 -18 -19 -20 -35 -20 -140 l0 -118 -40 0 -40 0 0 170 0 170 35
0 c28 0 35 -4 35 -20 0 -11 5 -20 10 -20 6 0 10 4 10 10 0 30 94 50 144 30z
m386 -25 c37 -35 38 -53 4 -61 -20 -5 -31 -2 -43 14 -31 39 -101 39 -122 0
-16 -30 6 -47 86 -65 86 -19 115 -46 115 -103 0 -56 -39 -96 -103 -105 -69
-11 -116 2 -155 41 -38 38 -38 58 2 62 20 3 33 -4 48 -23 18 -23 26 -26 71
-23 34 2 53 8 61 21 19 30 -5 50 -82 68 -82 19 -97 28 -112 74 -9 26 -8 41 4
69 20 48 63 67 139 63 47 -3 62 -8 87 -32z m388 8 c64 -47 85 -168 43 -251
-24 -47 -52 -69 -98 -78 -44 -8 -75 1 -113 32 l-31 27 3 -97 3 -96 -37 0 -38
0 0 240 0 240 35 0 c31 0 35 -3 36 -27 0 -16 3 -22 6 -15 3 8 19 23 37 33 39
25 115 21 154 -8z m220 -151 l2 -172 -40 0 -40 0 0 168 c0 93 2 171 4 173 2 2
19 4 38 3 l33 -1 3 -171z m292 143 c0 -33 -2 -35 -35 -35 -25 0 -44 -8 -60
-25 -24 -23 -25 -30 -25 -140 l0 -115 -40 0 -40 0 0 170 0 170 35 0 c31 0 35
-3 35 -27 l0 -28 18 21 c23 29 51 43 85 44 24 0 27 -3 27 -35z m263 21 c57
-24 97 -89 97 -157 l0 -29 -125 0 c-115 0 -125 -1 -125 -19 0 -28 37 -69 69
-76 31 -7 101 17 101 34 0 14 11 14 45 1 l26 -10 -20 -29 c-23 -32 -85 -61
-132 -61 -72 0 -139 56 -160 133 -38 144 93 269 224 213z m-4629 -265 c35 -39
-16 -97 -63 -72 -23 13 -29 59 -9 79 18 18 53 14 72 -7z m2411 -5 c13 -19 14
-29 6 -45 -25 -45 -91 -33 -91 17 0 54 56 72 85 28z m2459 8 c21 -20 20 -43
-1 -66 -31 -34 -83 -12 -83 36 0 44 52 63 84 30z"/>
<path d="M2717 6339 c-51 -39 -56 -151 -10 -191 47 -41 119 -25 143 32 20 49
8 129 -24 157 -33 28 -75 29 -109 2z"/>
<path d="M2350 6353 c-51 -19 -78 -87 -60 -153 31 -115 180 -85 180 36 0 86
-56 141 -120 117z"/>
<path d="M3116 6338 c-13 -13 -27 -33 -31 -45 -6 -23 -5 -23 84 -23 85 0 91 1
91 20 0 12 -11 32 -25 45 -32 33 -85 33 -119 3z"/>
<path d="M4509 6331 c-51 -51 -42 -61 61 -61 79 0 90 2 90 18 -1 36 -48 72
-95 72 -16 0 -38 -12 -56 -29z"/>
<path d="M4913 6223 c-30 -6 -45 -27 -41 -60 4 -38 44 -57 87 -42 36 13 51 35
51 78 0 29 -2 31 -37 30 -21 -1 -48 -4 -60 -6z"/>
<path d="M5516 6338 c-14 -13 -26 -32 -28 -43 -3 -19 3 -20 85 -23 82 -3 87
-2 87 18 0 12 -11 32 -25 45 -32 33 -84 33 -119 3z"/>
<path d="M7169 6331 c-26 -26 -29 -37 -29 -89 0 -68 22 -106 66 -115 66 -12
114 35 114 113 0 104 -86 156 -151 91z"/>
<path d="M7975 6335 c-14 -13 -25 -33 -25 -45 0 -20 5 -21 88 -18 81 3 87 4
84 23 -9 60 -102 86 -147 40z"/>
</g>
</svg>
